<?xml version="1.0" standalone="no"?>
<!DOCTYPE svg PUBLIC "-//W3C//DTD SVG 20010904//EN"
 "http://www.w3.org/TR/2001/REC-SVG-20010904/DTD/svg10.dtd">
<svg version="1.0" xmlns="http://www.w3.org/2000/svg"
 width="321.000000pt" height="157.000000pt" viewBox="0 0 321.000000 157.000000"
 preserveAspectRatio="xMidYMid meet">

<g transform="translate(0.000000,157.000000) scale(0.100000,-0.100000)"
fill="#000000" stroke="none">
<path d="M0 1131 l0 -439 143 4 c78 3 152 6 165 8 21 3 22 2 6 -15 -21 -23
-10 -57 24 -71 24 -10 15 -13 -73 -20 -104 -10 -125 -18 -125 -50 0 -10 -4
-17 -9 -13 -5 3 -13 0 -17 -6 -14 -23 24 -29 181 -29 88 -1 178 -5 200 -9 37
-8 38 -9 9 -10 -62 -2 -123 -14 -118 -22 3 -5 34 -9 70 -9 75 0 85 -16 17 -26
-89 -14 -294 -6 -343 14 -20 8 -5 11 78 17 56 4 101 9 100 11 -5 4 -88 12
-163 16 -55 3 -60 1 -63 -19 -5 -33 27 -44 161 -54 266 -19 607 -1 607 32 0 5
-7 9 -15 9 -8 0 -15 5 -15 10 0 6 5 10 10 10 18 0 10 22 -10 27 -11 3 -18 9
-15 13 3 5 0 20 -6 34 -12 26 -50 38 -156 51 -57 7 -70 17 -79 61 -5 26 -2 32
22 43 21 9 24 15 15 21 -8 4 -10 13 -7 19 10 15 43 14 49 -3 4 -9 25 -14 64
-15 187 -4 304 -68 178 -97 -28 -7 -44 -13 -36 -13 8 -1 25 -10 37 -22 27 -25
100 -36 314 -44 85 -3 171 -7 191 -10 l36 -5 6 67 c4 37 3 71 -1 75 -8 8 -108
26 -371 68 -159 25 -265 46 -306 61 -68 25 -72 29 -70 67 1 21 3 49 4 64 2 49
20 50 555 28 269 -12 492 -23 495 -25 9 -9 -9 -18 -38 -19 -41 -1 -28 -16 15
-16 19 0 34 -2 34 -4 0 -9 -31 -131 -37 -146 -4 -10 -8 -5 -13 15 l-6 30 -16
-30 -16 -30 -8 30 c-6 26 -8 27 -15 10 -5 -14 -8 -15 -9 -5 0 8 -7 0 -15 -17
-8 -18 -18 -33 -24 -33 -13 0 12 -92 37 -132 31 -51 35 -84 15 -121 -9 -17
-22 -51 -29 -75 -10 -39 -10 -42 7 -37 18 6 24 -7 20 -40 -1 -5 6 -1 14 9 8
11 15 25 15 32 0 6 9 14 21 17 12 3 18 10 14 16 -8 13 3 51 14 51 17 0 59 -51
64 -78 10 -52 -46 -95 -80 -61 -11 11 -53 4 -53 -10 0 -17 119 -33 196 -26 81
8 125 29 79 37 -14 3 -26 0 -29 -8 -10 -26 -51 -16 -70 17 -15 26 -16 33 -5
40 11 7 10 9 -3 9 -10 0 -18 5 -18 10 0 6 15 10 34 10 34 0 66 -21 66 -43 0
-9 35 -10 142 -4 208 13 211 13 235 4 23 -8 46 12 174 156 32 36 40 39 109 47
41 5 107 9 145 10 61 0 80 5 149 40 88 45 95 46 139 26 39 -17 129 -43 180
-52 l37 -6 0 506 0 506 -279 0 c-223 0 -284 -3 -307 -14 -24 -13 -32 -13 -62
0 -29 12 -220 14 -1298 14 l-1264 0 0 -439z m1948 387 c17 -17 15 -47 -3 -55
-20 -7 -55 24 -55 49 0 21 39 25 58 6z m-471 -55 c8 -21 -35 -59 -50 -44 -7 7
-6 19 3 36 15 29 38 33 47 8z m-907 -28 c15 -46 0 -72 -47 -81 -68 -13 -93 31
-48 85 38 45 79 43 95 -4z m620 25 c0 -5 -4 -10 -9 -10 -6 0 -13 5 -16 10 -3
6 1 10 9 10 9 0 16 -4 16 -10z m206 -21 c3 -6 -1 -18 -9 -26 -14 -14 -17 -14
-33 1 -14 15 -15 19 -3 27 19 12 36 11 45 -2z m991 -68 c12 -12 23 -39 28 -67
7 -46 5 -50 -29 -81 -48 -44 -70 -44 -62 0 4 24 0 48 -14 81 -27 60 -20 86 24
86 18 0 41 -8 53 -19z m-309 -138 c29 -29 82 -100 82 -110 0 -5 20 -40 45 -77
50 -76 52 -84 30 -93 -22 -8 -55 34 -114 146 -73 140 -84 174 -43 134z m-1473
-23 c8 -13 -16 -60 -37 -74 -33 -21 -58 34 -30 67 16 19 57 23 67 7z m595 -51
c118 -1 228 2 243 6 19 5 33 3 45 -8 13 -12 50 -18 142 -23 69 -4 131 -11 138
-17 16 -12 15 -39 -1 -61 -11 -14 -18 -16 -33 -8 -10 5 -107 13 -214 17 -107
4 -208 8 -225 10 -61 7 -332 8 -343 1 -9 -5 -9 -13 -2 -27 10 -18 23 -19 229
-19 295 0 581 -11 581 -22 0 -6 -34 -7 -82 -3 -46 3 -273 7 -505 8 -231 1
-419 5 -416 10 2 4 35 7 73 7 38 0 71 4 74 9 8 12 -46 57 -105 86 -84 43 -75
49 62 41 68 -3 221 -7 339 -7z m665 -107 c-3 -8 -2 -19 2 -25 4 -7 6 -23 5
-37 -1 -14 2 -31 6 -38 5 -7 54 -19 117 -27 119 -15 145 -28 99 -45 -32 -12
-136 -36 -198 -46 -60 -9 -37 -14 70 -17 86 -2 107 -6 157 -30 39 -20 66 -42
84 -68 49 -74 44 -214 -9 -263 -13 -12 -26 -20 -30 -18 -5 1 -8 -3 -8 -8 0 -6
-13 -9 -30 -8 -35 3 -35 2 -14 59 24 67 23 172 -2 206 -12 16 -25 28 -30 29
-5 0 -17 4 -26 8 -19 9 -28 6 -73 -24 -16 -11 -38 -23 -47 -26 -10 -4 -18 -16
-18 -30 l0 -23 26 24 c32 29 37 30 55 9 11 -13 11 -19 0 -37 -10 -17 -6 -15
18 7 17 16 32 28 34 25 23 -31 37 -63 37 -84 0 -28 -27 -65 -49 -65 -29 0 -87
33 -97 55 -10 20 -8 24 10 30 l21 8 -22 4 c-15 3 -44 -13 -98 -56 -42 -34 -84
-61 -93 -61 -10 0 -29 7 -42 16 -73 49 -69 89 14 171 58 57 84 94 78 116 -1 4
2 17 8 28 8 15 7 21 -4 25 -8 3 -12 12 -9 20 3 8 -1 22 -8 31 -10 12 -10 15
-1 9 8 -5 12 -1 12 13 0 10 -6 21 -12 24 -10 3 -8 10 5 25 12 13 15 22 8 27
-6 3 -11 11 -11 16 0 6 4 8 10 4 16 -10 43 43 37 72 -5 26 -4 27 9 8 8 -11 12
-26 9 -33z m-1369 0 c-3 -3 2 -11 12 -18 15 -12 14 -13 -10 -14 -15 0 -39 5
-55 11 l-28 11 30 12 c28 12 63 11 51 -2z m169 -45 c11 -8 14 -16 8 -20 -6 -4
-18 2 -28 13 -21 23 -8 27 20 7z m1775 -1 c0 -3 -4 -8 -10 -11 -5 -3 -10 -1
-10 4 0 6 5 11 10 11 6 0 10 -2 10 -4z m-1953 -12 c-3 -3 -12 -4 -19 -1 -8 3
-5 6 6 6 11 1 17 -2 13 -5z m1026 -1 c-7 -2 -19 -2 -25 0 -7 3 -2 5 12 5 14 0
19 -2 13 -5z m-1020 -24 c23 -11 24 -12 9 -30 -17 -20 -40 -23 -80 -12 -18 4
-20 8 -10 14 10 7 10 9 0 9 -10 0 -10 3 0 15 16 17 48 19 81 4z m1997 -29 c0
-5 -2 -10 -4 -10 -3 0 -8 5 -11 10 -3 6 -1 10 4 10 6 0 11 -4 11 -10z m-1862
-35 c6 -14 10 -25 8 -25 -2 0 -11 11 -20 25 -9 14 -13 25 -8 25 5 0 14 -11 20
-25z m-145 -14 c8 -8 8 -11 0 -11 -10 0 -35 -91 -36 -127 0 -16 -2 -16 -50 -2
-31 8 -36 13 -28 27 7 14 17 56 27 117 1 6 2 13 3 16 2 10 71 -7 84 -20z
m1922 -16 c28 -13 43 -24 35 -24 -8 0 -35 11 -60 24 -58 31 -40 31 25 0z
m-1951 -185 l31 -20 -50 0 c-56 0 -68 6 -73 34 -3 16 1 18 29 12 18 -3 46 -15
63 -26z m-35 -36 c2 -2 2 -7 -1 -10 -9 -9 -78 7 -78 18 0 9 69 2 79 -8z m61
-124 c0 -16 -317 -13 -323 3 -3 9 31 11 159 9 95 -2 164 -7 164 -12z m1353
-97 c-4 -10 -2 -14 4 -10 5 4 19 0 29 -9 18 -15 18 -15 -1 -6 -11 5 -25 7 -32
5 -17 -6 -28 18 -12 28 19 12 19 11 12 -8z m84 -39 c-3 -3 -12 -4 -19 -1 -8 3
-5 6 6 6 11 1 17 -2 13 -5z"/>
<path d="M1843 943 c-3 -10 -8 -21 -10 -25 -8 -14 2 -8 19 12 10 11 13 22 8
25 -6 4 -13 -2 -17 -12z"/>
<path d="M1558 913 c7 -3 16 -2 19 1 4 3 -2 6 -13 5 -11 0 -14 -3 -6 -6z"/>
<path d="M1275 500 c-113 -4 -131 -6 -91 -12 27 -5 98 -8 159 -8 96 0 108 2
97 15 -7 8 -15 14 -19 13 -3 -1 -69 -5 -146 -8z"/>
<path d="M978 493 c12 -2 32 -2 45 0 12 2 2 4 -23 4 -25 0 -35 -2 -22 -4z"/>
<path d="M1567 315 c-3 -7 3 -15 14 -18 11 -3 19 0 19 8 0 18 -27 27 -33 10z"/>
<path d="M2525 314 c-42 -15 -78 -51 -68 -68 4 -5 -1 -7 -9 -3 -9 3 -24 -3
-34 -14 -16 -18 -16 -19 6 -19 26 0 85 34 117 67 18 18 33 23 75 23 68 0 94
15 41 23 -55 10 -83 8 -128 -9z"/>
<path d="M1626 283 c-6 -14 -5 -15 5 -6 7 7 10 15 7 18 -3 3 -9 -2 -12 -12z"/>
<path d="M2725 139 c-5 -8 -29 -10 -77 -7 -37 3 -71 1 -74 -3 -3 -5 10 -9 28
-9 23 0 29 -3 19 -9 -10 -7 -2 -12 30 -20 41 -9 39 -10 -35 -8 -127 4 -48 -19
113 -33 74 -6 137 -13 141 -15 8 -5 279 -35 315 -35 20 0 25 5 25 26 0 26 -2
26 -47 21 -49 -5 -163 13 -223 37 -19 8 -44 14 -56 14 -12 0 -39 8 -60 18 -21
9 -43 18 -49 20 -5 1 -17 5 -26 9 -10 3 -20 1 -24 -6z"/>
</g>
</svg>
